<?xml version="1.0" encoding="UTF-8"?>
<svg width="30px" height="30px" viewBox="0 0 30 30" version="1.1" xmlns="http://www.w3.org/2000/svg" xmlns:xlink="http://www.w3.org/1999/xlink">
    <!-- Generator: Sketch 42 (36781) - http://www.bohemiancoding.com/sketch -->
    <title>TabBar Iconscreen</title>
    <desc>Created with Sketch.</desc>
    <defs></defs>
    <g id="Page-2" stroke="none" stroke-width="1" fill="none" fill-rule="evenodd" opacity="1">
        <g id="destaque_lista_sem_credito" transform="translate(-19.000000, -616.000000)" fill="#fff">
            <g id="TabBar-Icon" transform="translate(19.000000, 616.000000)">
                <path d="M29.6093958,11.2290384 C29.495309,10.8625294 29.1949887,10.5937822 28.8311342,10.5326973 L19.8498583,9.02450217 L15.7030409,0.55876967 C15.5347817,0.215754792 15.1973893,-1.77635684e-15 14.8287917,-1.77635684e-15 C14.460194,-1.77635684e-15 14.1228017,0.215754792 13.9545424,0.55876967 L9.80760025,9.02450217 L0.826324334,10.5326973 C0.462594704,10.5937822 0.162274358,10.8625294 0.0481875764,11.2290384 C-0.0658992051,11.595678 0.0262190058,11.9979504 0.286097211,12.2712659 L6.70416519,19.0114822 L5.30042346,28.40915 C5.24387935,28.7900166 5.39553738,29.1719274 5.69386058,29.3987767 C5.99180932,29.6252344 6.38624502,29.6583873 6.71539912,29.4840083 L14.8287917,25.1839226 L22.9421842,29.4840083 C23.0826083,29.5584065 23.2347657,29.5950835 23.3862989,29.5950835 C23.5901323,29.5950835 23.7924678,29.5289083 23.963598,29.3987767 C24.262046,29.1719274 24.413704,28.7900166 24.3566606,28.40915 L22.9534182,19.0114822 L29.3714861,12.2712659 C29.6313644,11.9979504 29.7234826,11.595678 29.6093958,11.2290384 Z M21.2097877,17.9306198 C20.9888538,18.16269 20.8869995,18.4909558 20.9358047,18.8142616 L22.1201103,26.7449797 L15.2729063,23.1164357 C14.993556,22.9685529 14.6639026,22.9685529 14.3845522,23.1164357 L7.53747302,26.7449797 L8.72177869,18.8137396 C8.77008458,18.4904337 8.66810548,18.16269 8.44729638,17.9306198 L3.03116997,12.2426813 L10.6107013,10.9700805 C10.9197591,10.9181322 11.1865025,10.7151687 11.3289238,10.4239715 L14.8287917,3.27991662 L18.3281603,10.4239715 C18.470956,10.7156908 18.7376994,10.9181322 19.0468821,10.9700805 L26.6257893,12.2426813 L21.2097877,17.9306198 Z" id="Fill-1"></path>
            </g>
        </g>
    </g>
</svg>