<?xml version="1.0" encoding="UTF-8"?>
<svg width="23px" height="13px" viewBox="0 0 23 13" version="1.1" xmlns="http://www.w3.org/2000/svg" xmlns:xlink="http://www.w3.org/1999/xlink">
    <!-- Generator: Sketch 42 (36781) - http://www.bohemiancoding.com/sketch -->
    <title>dollar-bill</title>
    <desc>Created with Sketch.</desc>
    <defs></defs>
    <g id="Page-2" stroke="none" stroke-width="1" fill="none" fill-rule="evenodd">
        <g id="destaque_lista_sem_credito" transform="translate(-329.000000, -588.000000)" fill-rule="nonzero" fill="#FFFFFF">
            <g id="dollar-bill" transform="translate(329.000000, 588.000000)">
                <g id="Capa_1">
                    <g id="Group">
                        <path d="M19.765625,0 L3.234375,0 L0,0 L0,3.51879699 L0,9.48120301 L0,13 L3.234375,13 L19.765625,13 L23,13 L23,9.48120301 L23,3.51879699 L23,0 L19.765625,0 Z M22.1015625,9.62781955 C20.9635566,9.98619925 20.2298027,10.7844774 19.9003906,12.0225564 L3.09960938,12.0225564 C2.77019727,10.7844774 2.03644336,9.98619925 0.8984375,9.62781955 L0.8984375,3.37218045 C2.03644336,3.01375188 2.77019727,2.21552256 3.09960938,0.977443609 L19.9003906,0.977443609 C20.2298477,2.18297368 20.9636016,2.98120301 22.1015625,3.37218045 L22.1015625,9.62781955 Z" id="Shape"></path>
                        <path d="M11.5,1.51503759 C10.3619941,1.51503759 9.38867188,2.0037594 8.58007812,2.98120301 C7.77148438,3.95864662 7.3671875,5.13157895 7.3671875,6.5 C7.3671875,7.86842105 7.77148438,9.04135338 8.58007812,10.018797 C9.38867188,10.9962406 10.3619941,11.4849624 11.5,11.4849624 C12.6380059,11.4849624 13.6113281,10.9962406 14.4199219,10.018797 C15.2285156,9.04135338 15.6328125,7.86842105 15.6328125,6.5 C15.6328125,5.13157895 15.2285156,3.95864662 14.4199219,2.98120301 C13.6113281,2.0037594 12.6380059,1.51503759 11.5,1.51503759 Z M13.2519531,9.33458647 C12.9824219,9.5952218 12.5481621,9.77443609 11.9492188,9.87218045 L11.9492188,10.5075188 L11.0507812,10.5075188 L11.0507812,9.87218045 C10.4817559,9.77443609 10.077459,9.62781955 9.83789062,9.43233083 C9.41863477,9.07395113 9.20898438,8.60150376 9.20898438,8.01503759 L10.3320312,8.01503759 C10.3619941,8.01503759 10.3844551,8.04763534 10.3994141,8.11278195 C10.414373,8.17792857 10.436834,8.2593985 10.4667969,8.35714286 C10.4968047,8.45488722 10.5267227,8.52003383 10.5566406,8.55263158 C10.6165215,8.61782707 10.78125,8.68297368 11.0507812,8.7481203 L11.0507812,7.08646617 C10.4817559,6.92357519 10.0924629,6.76063534 9.8828125,6.59774436 C9.49347461,6.30451128 9.29882812,5.86466165 9.29882812,5.27819549 C9.29882812,4.69172932 9.49347461,4.21928195 9.8828125,3.86090226 C10.1523438,3.56766917 10.5416816,3.38845489 11.0507812,3.32330827 L11.0507812,2.4924812 L11.9492188,2.4924812 L11.9492188,3.37218045 C12.2786309,3.43732707 12.6380059,3.61654135 13.0273438,3.90977444 C13.2070312,4.04011654 13.3342949,4.15413534 13.4091797,4.2518797 C13.4840645,4.34962406 13.5589043,4.50440226 13.6337891,4.71616541 C13.7086738,4.92792857 13.7610527,5.19672556 13.7910156,5.52255639 L12.6230469,5.52255639 C12.593084,5.09893233 12.4133965,4.80569925 12.0839844,4.64285714 L11.9492188,4.54511278 L11.9492188,6.10902256 L12.3535156,6.15789474 C12.8925781,6.32083459 13.2519531,6.48377444 13.4316406,6.64661654 C13.7610527,6.90725188 13.9257812,7.33082707 13.9257812,7.91729323 C13.9257812,8.47116165 13.7011719,8.94360902 13.2519531,9.33458647 Z" id="Shape"></path>
                        <path d="M12.4882813,7.52631579 C12.3085938,7.42857143 12.1289062,7.36342481 11.9492188,7.33082707 L11.9492188,8.79699248 L12.0615234,8.77255639 C12.1364082,8.75628195 12.1887871,8.7481203 12.21875,8.7481203 C12.5481621,8.6177782 12.7128906,8.37341729 12.7128906,8.01503759 C12.7128906,7.81954887 12.6380059,7.65665789 12.4882813,7.52631579 Z" id="Shape"></path>
                        <path d="M10.421875,5.18045113 C10.421875,5.37593985 10.5117188,5.53883083 10.6914062,5.66917293 C10.7512871,5.70177068 10.8710938,5.75064286 11.0507812,5.81578947 L11.0507812,4.44736842 C10.9010566,4.47996617 10.78125,4.52883835 10.6914062,4.59398496 C10.5117188,4.72432707 10.421875,4.91981579 10.421875,5.18045113 Z" id="Shape"></path>
                    </g>
                </g>
            </g>
        </g>
    </g>
</svg>