<?xml version="1.0" encoding="UTF-8"?>
<svg width="29px" height="27px" viewBox="0 0 29 27" version="1.1" xmlns="http://www.w3.org/2000/svg" xmlns:xlink="http://www.w3.org/1999/xlink">
    <!-- Generator: Sketch 42 (36781) - http://www.bohemiancoding.com/sketch -->
    <title>cup-1screen</title>
    <desc>Created with Sketch.</desc>
    <defs></defs>
    <g id="Page-2" stroke="none" stroke-width="1" fill="#fff" fill-rule="evenodd" opacity="1">
        <g id="destaque_lista_sem_credito" transform="translate(-96.000000, -620.000000)" fill="#fff">
            <path d="M123.84474,621.018287 L119.280544,621.018287 L119.280544,620.898402 C119.280544,620.402156 118.763409,620 118.125284,620 L102.874716,620 C102.236591,620 101.718872,620.402156 101.718872,620.898402 L101.718872,621.018287 L97.1552597,621.018287 C96.5171343,621.018287 96,621.420443 96,621.916688 L96,626.828806 C96,630.2148 98.3568409,632.105353 102.641209,632.171488 C103.04422,632.946027 103.571583,633.650453 104.217746,634.257721 C105.12474,635.110441 106.222427,635.748277 107.438182,636.145546 L107.438182,640.755393 L102.874716,640.755393 C102.236591,640.755393 101.718872,641.157549 101.718872,641.653795 L101.718872,646.101598 C101.718872,646.59739 102.236591,647 102.874716,647 L118.125284,647 C118.763409,647 119.281128,646.59739 119.281128,646.101598 L119.281128,641.653795 C119.281128,641.157549 118.763409,640.755393 118.125284,640.755393 L113.561818,640.755393 L113.561818,636.145546 C114.777573,635.748277 115.87526,635.110441 116.782254,634.257721 C117.428417,633.650453 117.95578,632.946027 118.358791,632.171488 C122.643159,632.105353 125,630.2148 125,626.828806 L125,621.916688 C125,621.420443 124.482866,621.018287 123.84474,621.018287 Z M98.3105194,626.828806 L98.3105194,622.815204 L101.718872,622.815204 L101.718872,628.310953 C101.718872,629.010947 101.800994,629.690941 101.957931,630.342186 C99.4447373,630.137983 98.3105194,629.030947 98.3105194,626.828806 Z M104.029976,645.202629 L116.970024,645.202629 L116.970024,642.552197 L104.029976,642.552197 L104.029976,645.202629 Z M111.251153,640.755393 L109.748847,640.755393 L109.748847,636.593042 C109.997113,636.610769 110.247132,636.62236 110.499927,636.62236 C110.752868,636.62236 111.002887,636.610769 111.251153,636.593042 L111.251153,640.755393 Z M110.499927,634.824989 C106.750959,634.824989 104.029976,632.085807 104.029976,628.310953 L104.029976,621.796917 L116.970024,621.796917 L116.970024,628.310953 C116.970024,632.085807 114.249041,634.824989 110.499927,634.824989 Z M122.689334,626.828806 C122.689334,629.030947 121.555263,630.137528 119.042069,630.342186 C119.199006,629.690941 119.280544,629.010947 119.280544,628.310953 L119.280544,622.815204 L122.689334,622.815204 L122.689334,626.828806 Z" id="cup-1"></path>
        </g>
    </g>
</svg>