<?xml version="1.0" encoding="UTF-8"?>
<svg width="29px" height="27px" viewBox="0 0 29 27" version="1.1" xmlns="http://www.w3.org/2000/svg" xmlns:xlink="http://www.w3.org/1999/xlink">
    <!-- Generator: Sketch 42 (36781) - http://www.bohemiancoding.com/sketch -->
    <title>TabBar Vencedoresscreen</title>
    <desc>Created with Sketch.</desc>
    <defs>
        <polygon id="path-1" points="14.4910902 0.0451882845 0 0.0451882845 0 26.8872552 28.9821805 26.8872552 28.9821805 0.0451882845"></polygon>
    </defs>
    <g id="Page-2" stroke="none" stroke-width="1" fill="none" fill-rule="evenodd">
        <g id="destaque_lista_sem_credito" transform="translate(-250.000000, -620.000000)">
            <g id="TabBar-Vencedores" transform="translate(250.000000, 620.000000)">
                <g id="Group-3">
                    <mask id="mask-2" fill="#fff">
                        <use xlink:href="#path-1"></use>
                    </mask>
                    <g id="Clip-2"></g>
                    <path d="M28.8641855,0.524410042 C28.6848054,0.229669456 28.3305068,0.0451882845 27.9445837,0.0451882845 L19.6268326,0.0451882845 C19.2869683,0.0451882845 18.9682308,0.188661088 18.7744163,0.429062762 L14.4913394,5.74230126 L10.2076063,0.429062762 C10.0137919,0.188661088 9.6950543,0.0451882845 9.35519005,0.0451882845 L1.03743891,0.0451882845 C0.651515837,0.0451882845 0.297348416,0.229669456 0.118361991,0.524410042 C-0.0610180995,0.818811715 -0.0349049774,1.17444351 0.185022624,1.44760669 L7.4258371,10.4283264 C7.047,10.5616318 6.7799638,10.8815649 6.7799638,11.255272 C6.7799638,11.748728 7.24435747,12.1485314 7.81740271,12.1485314 L8.53754751,12.1485314 C6.31911312,13.6634686 4.89365158,16.003205 4.89365158,18.6244644 C4.89365158,23.1803473 9.19890498,26.8872552 14.4913394,26.8872552 C19.7832489,26.8872552 24.088371,23.1803473 24.088371,18.6244644 C24.088371,16.003205 22.6629095,13.6634686 20.4444751,12.1485314 L21.1646199,12.1485314 C21.7376652,12.1485314 22.2025837,11.748728 22.2025837,11.255272 C22.2025837,10.8815649 21.9350226,10.5616318 21.5567104,10.4283264 L28.797,1.44760669 C29.0169276,1.17444351 29.0430407,0.818811715 28.8641855,0.524410042 Z M8.81232579,1.83148117 L13.2278054,7.30886611 L10.7663484,10.3621255 L9.8980543,10.3621255 L3.02072398,1.83148117 L8.81232579,1.83148117 Z M22.0129683,18.6244644 C22.0129683,22.1953556 18.6386018,25.1003975 14.4908145,25.1003975 C10.3434208,25.1003975 6.96852941,22.1953556 6.96852941,18.6244644 C6.96852941,15.0535732 10.3434208,12.1485314 14.4908145,12.1485314 C18.6386018,12.1485314 22.0129683,15.0535732 22.0129683,18.6244644 Z M19.0840995,10.3621255 L13.2923665,10.3621255 L20.1696968,1.83148117 L25.9614299,1.83148117 L19.0840995,10.3621255 Z" id="Fill-1" fill="#fff" opacity="1" mask="url(#mask-2)"></path>
                </g>
                <path d="M15.4016244,13.1074268 C15.2247376,12.8082803 14.867552,12.6198452 14.4774299,12.6198452 C14.0873077,12.6198452 13.7306471,12.8082803 13.5532353,13.1074268 L12.038543,15.663841 L8.76062443,16.1183222 C8.37666968,16.1717573 8.05937557,16.4056067 7.93891403,16.7238452 C7.81897738,17.0419707 7.91529412,17.3915021 8.18849774,17.6293054 L10.534086,19.6659414 L10.021009,22.5060251 C9.96104072,22.8374812 10.1220498,23.169728 10.4372443,23.366523 C10.7524389,23.563431 11.169724,23.5916736 11.5168054,23.4393891 L14.4774299,22.1420335 L17.4381855,23.4393891 C17.5867285,23.5046862 17.7482624,23.536431 17.9087466,23.536431 C18.1234253,23.536431 18.3371855,23.4791548 18.5176154,23.366523 C18.8333348,23.169728 18.993819,22.8374812 18.9338507,22.506477 L18.4207738,19.6659414 L20.766362,17.6293054 C21.0400905,17.3915021 21.1364072,17.0419707 21.0159457,16.7238452 C20.8954842,16.4056067 20.57819,16.1717573 20.1943665,16.1183222 L16.9163167,15.663841 L15.4016244,13.1074268 Z M16.578552,18.7286234 C16.3468145,18.9302762 16.2397376,19.2145105 16.2905204,19.4946778 L16.5723846,21.0554812 L14.947991,20.3437657 C14.8003665,20.2788075 14.6389638,20.2466109 14.4779548,20.2466109 C14.316552,20.2466109 14.1550181,20.2788075 14.0068688,20.3437657 L12.383,21.0554812 L12.6655204,19.4946778 C12.7156471,19.2145105 12.609095,18.9302762 12.3768326,18.7286234 L11.0841674,17.6059205 L12.888991,17.3553515 C13.2154706,17.3098243 13.4978597,17.133364 13.6481086,16.8791799 L14.4779548,15.4789079 L15.307276,16.8791799 C15.4575249,17.133364 15.7393891,17.3098243 16.0665249,17.3553515 L17.8712172,17.6059205 L16.578552,18.7286234 Z" id="Fill-4" fill="#fff" opacity="1"></path>
            </g>
        </g>
    </g>
</svg>